<svg width="78" height="47" viewBox="0 0 78 47" fill="none" xmlns="http://www.w3.org/2000/svg">
<path d="M13 0L24.2583 6.25V18.75L13 25L1.74167 18.75V6.25L13 0Z" transform="translate(0 25) scale(1 -1)" fill="#EB5757"/>
<path d="M13 0L24.2583 6.25V18.75L13 25L1.74167 18.75V6.25L13 0Z" transform="translate(26 25) scale(1 -1)" fill="#FFC423"/>
<path d="M13 0L24.2583 6.25V18.75L13 25L1.74167 18.75V6.25L13 0Z" transform="translate(52 25) scale(1 -1)" fill="#333333"/>
<path d="M13 0L24.2583 6.25V18.75L13 25L1.74167 18.75V6.25L13 0Z" transform="translate(13 47) scale(1 -1)" fill="#219653"/>
<path d="M13 0L24.2583 6.25V18.75L13 25L1.74167 18.75V6.25L13 0Z" transform="translate(39 47) scale(1 -1)" fill="#99612F"/>
</svg>
