<svg width="295" height="188" viewBox="0 0 295 188" fill="none" xmlns="http://www.w3.org/2000/svg">
<path d="M5.04976 0L10.0995 11.6435H2.7389e-08L5.04976 0Z" transform="translate(142.668 188) scale(1 -1)" fill="#FFC423"/>
<path d="M5.04976 0L10.0995 11.6435H2.7389e-08L5.04976 0Z" transform="translate(142.668 188) scale(1 -1)" fill="#2A2A2A"/>
<path fill-rule="evenodd" clip-rule="evenodd" d="M10.6432 0L134.066 43.6632C127.048 49.328 121.505 55.1074 116.657 60.8347C103.927 83.0196 94.479 93.6766 86.4462 96.059C68.4101 97.3006 59.9787 85.3134 56.3196 74.7126C54.4418 66.9607 55.2224 61.3891 55.3477 61.1285C22.9771 50.901 8.91827 39.8726 2.86856 27.1682C-1.89426 19.5532 -1.62758 2.3595 10.6432 0ZM45.526 20.0333C34.6542 16.2418 23.638 12.3999 10.6432 7.76235C8.21836 10.7594 6.74448 13.7427 6.81566 17.1932L61.4858 36.2461C62.7556 33.5081 64.3276 30.6279 66.3288 27.3145C59.1472 24.7838 52.3654 22.4186 45.526 20.0333ZM74.1555 30.0832C72.0321 33.3919 70.3147 36.2373 68.9164 38.8356L106.817 52.0442C110.811 50.6004 115.005 48.7947 119.488 46.5741C101.279 39.809 86.9107 34.6135 74.1555 30.0832ZM58.8364 43.0651L9.39232 25.2094C10.4301 27.0066 11.8043 28.9419 13.5587 31.0494C26.8463 42.2576 36.903 48.3322 56.4088 53.7865C57.0797 49.725 57.8162 46.32 58.8364 43.0651ZM63.2405 55.4783C63.7939 51.8919 64.5643 48.7788 65.785 45.5747L93.7254 55.6648C83.4576 57.5857 73.9573 57.1307 63.2405 55.4783ZM106.344 60.1869C107.501 59.8778 108.646 59.5451 109.77 59.1879C102.961 66.9009 97.0728 76.3155 94.2603 80.8126L94.2574 80.8171L94.2554 80.8202L93.855 81.4604C91.6204 83.373 89.87 84.8667 88.488 86.0326C84.3179 89.5519 78.6558 89.6576 74.2025 86.5024C73.5775 86.0598 72.992 85.6222 72.4406 85.21L72.4159 85.1916C71.8777 84.7891 71.3724 84.4114 70.8941 84.0777L106.344 60.1869ZM89.0361 63.2812C85.6139 63.6402 82.7055 63.8042 80.7486 63.828L78.0988 63.7892C65.9059 63.6105 63.9181 63.5814 61.4638 63.6425C60.9627 67.1697 63.1721 73.574 64.0938 75.6829L64.1107 75.7223L64.1142 75.7296C64.4135 76.4145 64.8728 77.4649 65.5443 78.617L89.0361 63.2812Z" transform="translate(0 33.7234)" fill="#FFC423"/>
<path fill-rule="evenodd" clip-rule="evenodd" d="M10.6432 0L134.066 43.6632C127.048 49.328 121.505 55.1074 116.657 60.8347C103.927 83.0196 94.479 93.6766 86.4462 96.059C68.4101 97.3006 59.9787 85.3134 56.3196 74.7126C54.4418 66.9607 55.2224 61.3891 55.3477 61.1285C22.9771 50.901 8.91827 39.8726 2.86856 27.1682C-1.89426 19.5532 -1.62758 2.3595 10.6432 0ZM45.526 20.0333C34.6542 16.2418 23.638 12.3999 10.6432 7.76235C8.21836 10.7594 6.74448 13.7427 6.81566 17.1932L61.4858 36.2461C62.7556 33.5081 64.3276 30.6279 66.3288 27.3145C59.1472 24.7838 52.3654 22.4186 45.526 20.0333ZM74.1555 30.0832C72.0321 33.3919 70.3147 36.2373 68.9164 38.8356L106.817 52.0442C110.811 50.6004 115.005 48.7947 119.488 46.5741C101.279 39.809 86.9107 34.6135 74.1555 30.0832ZM58.8364 43.0651L9.39232 25.2094C10.4301 27.0066 11.8043 28.9419 13.5587 31.0494C26.8463 42.2576 36.903 48.3322 56.4088 53.7865C57.0797 49.725 57.8162 46.32 58.8364 43.0651ZM63.2405 55.4783C63.7939 51.8919 64.5643 48.7788 65.785 45.5747L93.7254 55.6648C83.4576 57.5857 73.9573 57.1307 63.2405 55.4783ZM106.344 60.1869C107.501 59.8778 108.646 59.5451 109.77 59.1879C102.961 66.9009 97.0728 76.3155 94.2603 80.8126L94.2574 80.8171L94.2554 80.8202L93.855 81.4604C91.6204 83.373 89.87 84.8667 88.488 86.0326C84.3179 89.5519 78.6558 89.6576 74.2025 86.5024C73.5775 86.0598 72.992 85.6222 72.4406 85.21L72.4159 85.1916C71.8777 84.7891 71.3724 84.4114 70.8941 84.0777L106.344 60.1869ZM89.0361 63.2812C85.6139 63.6402 82.7055 63.8042 80.7486 63.828L78.0988 63.7892C65.9059 63.6105 63.9181 63.5814 61.4638 63.6425C60.9627 67.1697 63.1721 73.574 64.0938 75.6829L64.1107 75.7223L64.1142 75.7296C64.4135 76.4145 64.8728 77.4649 65.5443 78.617L89.0361 63.2812Z" transform="translate(0 33.7234)" fill="#2A2A2A"/>
<path fill-rule="evenodd" clip-rule="evenodd" d="M10.6432 0L134.066 43.6632C127.048 49.328 121.505 55.1074 116.657 60.8347C103.927 83.0196 94.479 93.6766 86.4462 96.059C68.4101 97.3006 59.9787 85.3134 56.3196 74.7126C54.4418 66.9607 55.2224 61.3891 55.3477 61.1285C22.9771 50.901 8.91827 39.8726 2.86856 27.1682C-1.89426 19.5532 -1.62758 2.3595 10.6432 0ZM45.526 20.0333C34.6542 16.2418 23.638 12.3999 10.6432 7.76235C8.21836 10.7594 6.74448 13.7427 6.81566 17.1932L61.4858 36.2461C62.7556 33.5081 64.3276 30.6279 66.3288 27.3145C59.1472 24.7838 52.3654 22.4186 45.526 20.0333ZM74.1555 30.0832C86.9107 34.6135 101.279 39.809 119.488 46.5741C115.005 48.7947 110.811 50.6004 106.817 52.0442L68.9164 38.8356C70.3147 36.2373 72.0321 33.3919 74.1555 30.0832ZM65.785 45.5747L93.7254 55.6648C83.4576 57.5857 73.9573 57.1307 63.2405 55.4783C63.7939 51.8919 64.5643 48.7788 65.785 45.5747ZM56.4088 53.7865C36.903 48.3322 26.8463 42.2576 13.5587 31.0494C11.8043 28.9419 10.4301 27.0066 9.39232 25.2094L58.8364 43.0651C57.8162 46.32 57.0797 49.725 56.4088 53.7865ZM106.344 60.1869C107.501 59.8778 108.646 59.5451 109.77 59.1879C102.961 66.9009 97.0728 76.3155 94.2603 80.8126L94.2574 80.8171L94.2554 80.8202L93.855 81.4604C91.6204 83.373 89.87 84.8667 88.488 86.0326C84.3179 89.5519 78.6558 89.6576 74.2025 86.5024C73.5775 86.0598 72.992 85.6222 72.4406 85.21L72.4159 85.1916C71.8777 84.7891 71.3724 84.4114 70.8941 84.0777L106.344 60.1869ZM89.0361 63.2812L65.5443 78.617C64.8728 77.4649 64.4135 76.4145 64.1142 75.7296L64.1107 75.7223L64.0938 75.6829C63.1721 73.574 60.9627 67.1697 61.4638 63.6425C63.9181 63.5814 65.9059 63.6105 78.0988 63.7892L80.7486 63.828C82.7055 63.8042 85.6139 63.6402 89.0361 63.2812Z" transform="translate(295 33.7234) scale(-1 1)" fill="#FFC423"/>
<path fill-rule="evenodd" clip-rule="evenodd" d="M10.6432 0L134.066 43.6632C127.048 49.328 121.505 55.1074 116.657 60.8347C103.927 83.0196 94.479 93.6766 86.4462 96.059C68.4101 97.3006 59.9787 85.3134 56.3196 74.7126C54.4418 66.9607 55.2224 61.3891 55.3477 61.1285C22.9771 50.901 8.91827 39.8726 2.86856 27.1682C-1.89426 19.5532 -1.62758 2.3595 10.6432 0ZM45.526 20.0333C34.6542 16.2418 23.638 12.3999 10.6432 7.76235C8.21836 10.7594 6.74448 13.7427 6.81566 17.1932L61.4858 36.2461C62.7556 33.5081 64.3276 30.6279 66.3288 27.3145C59.1472 24.7838 52.3654 22.4186 45.526 20.0333ZM74.1555 30.0832C86.9107 34.6135 101.279 39.809 119.488 46.5741C115.005 48.7947 110.811 50.6004 106.817 52.0442L68.9164 38.8356C70.3147 36.2373 72.0321 33.3919 74.1555 30.0832ZM65.785 45.5747L93.7254 55.6648C83.4576 57.5857 73.9573 57.1307 63.2405 55.4783C63.7939 51.8919 64.5643 48.7788 65.785 45.5747ZM56.4088 53.7865C36.903 48.3322 26.8463 42.2576 13.5587 31.0494C11.8043 28.9419 10.4301 27.0066 9.39232 25.2094L58.8364 43.0651C57.8162 46.32 57.0797 49.725 56.4088 53.7865ZM106.344 60.1869C107.501 59.8778 108.646 59.5451 109.77 59.1879C102.961 66.9009 97.0728 76.3155 94.2603 80.8126L94.2574 80.8171L94.2554 80.8202L93.855 81.4604C91.6204 83.373 89.87 84.8667 88.488 86.0326C84.3179 89.5519 78.6558 89.6576 74.2025 86.5024C73.5775 86.0598 72.992 85.6222 72.4406 85.21L72.4159 85.1916C71.8777 84.7891 71.3724 84.4114 70.8941 84.0777L106.344 60.1869ZM89.0361 63.2812L65.5443 78.617C64.8728 77.4649 64.4135 76.4145 64.1142 75.7296L64.1107 75.7223L64.0938 75.6829C63.1721 73.574 60.9627 67.1697 61.4638 63.6425C63.9181 63.5814 65.9059 63.6105 78.0988 63.7892L80.7486 63.828C82.7055 63.8042 85.6139 63.6402 89.0361 63.2812Z" transform="translate(295 33.7234) scale(-1 1)" fill="#2A2A2A"/>
<path fill-rule="evenodd" clip-rule="evenodd" d="M29.1548 94.1184C32.0703 94.1184 58.3097 78.5938 58.3097 46.5741C58.3097 17.4653 33.0421 0 29.1548 0C25.2675 0 0 17.4653 0 46.5741C0 76.6532 26.2393 94.1184 29.1548 94.1184ZM29.1548 87.3264C30.5068 87.3264 36.8093 82.8832 42.3789 74.7395C39.815 74.9154 24.9311 75.8612 15.992 74.769C21.5462 82.8729 27.8081 87.3264 29.1548 87.3264ZM50.358 56.3639C49.6435 59.6544 48.6336 62.7116 47.4372 65.5214C32.441 72.0611 23.387 71.5904 10.6901 65.0096L10.6948 65.0345C9.58257 62.3596 8.64157 59.4677 7.96349 56.3719C17.9821 61.3365 40.6175 61.0906 50.358 56.3639ZM51.356 49.5453C51.4552 48.2599 51.5069 46.9459 51.5069 45.6038C51.5069 44.0241 51.393 42.4563 51.1809 40.9078C41.2378 45.5201 17.1009 45.7517 7.14161 40.9213C6.92143 42.4707 6.80279 44.0344 6.80279 45.6038C6.80279 46.9484 6.85547 48.2657 6.95607 49.5542C19.9149 55.3867 35.7815 55.7505 51.356 49.5453ZM46.3626 26.2936C47.6209 28.7341 48.7313 31.3253 49.5959 34.0206L49.5632 33.9603C34.1625 39.7845 22.0574 39.2136 8.79248 33.9783C9.66988 31.3191 10.7893 28.75 12.0529 26.3223C22.2714 29.5134 37.0785 29.3601 46.3626 26.2936ZM42.9659 20.5343C37.4572 12.2612 30.9898 6.79205 29.1548 6.79205C27.3468 6.79205 21.0405 12.253 15.5853 20.3828C16.9861 20.6387 18.2393 20.8747 19.3749 21.0884C29.2312 22.9436 30.2893 23.1429 42.9659 20.5343Z" transform="translate(118.516 87.0895)" fill="#FFC423"/>
<path fill-rule="evenodd" clip-rule="evenodd" d="M29.1548 94.1184C32.0703 94.1184 58.3097 78.5938 58.3097 46.5741C58.3097 17.4653 33.0421 0 29.1548 0C25.2675 0 0 17.4653 0 46.5741C0 76.6532 26.2393 94.1184 29.1548 94.1184ZM29.1548 87.3264C30.5068 87.3264 36.8093 82.8832 42.3789 74.7395C39.815 74.9154 24.9311 75.8612 15.992 74.769C21.5462 82.8729 27.8081 87.3264 29.1548 87.3264ZM50.358 56.3639C49.6435 59.6544 48.6336 62.7116 47.4372 65.5214C32.441 72.0611 23.387 71.5904 10.6901 65.0096L10.6948 65.0345C9.58257 62.3596 8.64157 59.4677 7.96349 56.3719C17.9821 61.3365 40.6175 61.0906 50.358 56.3639ZM51.356 49.5453C51.4552 48.2599 51.5069 46.9459 51.5069 45.6038C51.5069 44.0241 51.393 42.4563 51.1809 40.9078C41.2378 45.5201 17.1009 45.7517 7.14161 40.9213C6.92143 42.4707 6.80279 44.0344 6.80279 45.6038C6.80279 46.9484 6.85547 48.2657 6.95607 49.5542C19.9149 55.3867 35.7815 55.7505 51.356 49.5453ZM46.3626 26.2936C47.6209 28.7341 48.7313 31.3253 49.5959 34.0206L49.5632 33.9603C34.1625 39.7845 22.0574 39.2136 8.79248 33.9783C9.66988 31.3191 10.7893 28.75 12.0529 26.3223C22.2714 29.5134 37.0785 29.3601 46.3626 26.2936ZM42.9659 20.5343C37.4572 12.2612 30.9898 6.79205 29.1548 6.79205C27.3468 6.79205 21.0405 12.253 15.5853 20.3828C16.9861 20.6387 18.2393 20.8747 19.3749 21.0884C29.2312 22.9436 30.2893 23.1429 42.9659 20.5343Z" transform="translate(118.516 87.0895)" fill="#2A2A2A"/>
<path fill-rule="evenodd" clip-rule="evenodd" d="M0.119511 3.88117C0.119511 1.73766 1.86007 0 4.00683 0C6.15357 0 7.89414 1.73766 7.89414 3.88117C7.89414 4.74679 7.83765 5.43413 7.80446 5.83674L7.785 6.08273C7.76934 6.32606 7.75795 6.56345 7.8519 7.19061C7.93731 7.76578 7.98856 8.20406 8.02701 8.55758L8.05548 8.82305L8.05785 8.84531C8.07824 9.03508 8.09012 9.14773 8.10767 9.27146C8.13568 9.47006 8.17789 9.72849 8.45976 10.572C8.81757 11.6438 9.08566 13.0101 9.2731 13.9646L9.27596 13.9794C9.33289 14.2705 9.38224 14.5226 9.42401 14.7154C9.93126 17.0436 11.0374 19.0558 12.5487 21.7994C13.6292 23.7607 14.9143 25.2903 16.614 27.3128L17.0937 27.8841C17.3979 28.247 17.7571 28.6586 18.1477 29.1061C18.2411 29.2132 18.337 29.3226 18.4338 29.4338C21.4508 27.6988 24.9439 25.9226 28.928 23.8968L29.2135 23.7514C29.783 23.4619 30.4645 23.47 31.0277 23.7712C32.4859 24.5511 33.8915 25.2862 35.2416 25.9924L35.2534 25.9986L35.2577 26.0008C37.8504 27.3568 40.2401 28.6068 42.4111 29.8631C42.7299 29.4977 43.0238 29.1589 43.279 28.8544L43.7587 28.2831C45.4584 26.2606 46.7436 24.731 47.824 22.7697C49.3354 20.0261 50.4416 18.0139 50.9488 15.6857C50.9904 15.4929 51.0398 15.2408 51.0968 14.9497L51.0997 14.9349L51.1006 14.9309C51.288 13.9766 51.5557 12.6126 51.9129 11.5423C52.1949 10.6988 52.2371 10.4404 52.2651 10.2418C52.2816 10.1246 52.2931 10.0174 52.3115 9.84529L52.3148 9.8156L52.3174 9.79334L52.3458 9.52787C52.3842 9.17436 52.4354 8.73607 52.5209 8.1609C52.6148 7.53374 52.6035 7.29635 52.5877 7.05302L52.5683 6.80703C52.5351 6.40442 52.4787 5.71708 52.4787 4.85147C52.4787 2.70795 54.2192 0.970293 56.366 0.970293C58.5128 0.970293 60.2533 2.70795 60.2533 4.85147C60.2533 5.36669 60.2751 5.63892 60.304 5.99335L60.3044 5.99959L60.3054 6.00961L60.3103 6.07068C60.3215 6.20951 60.334 6.36338 60.3458 6.54975C60.3975 7.33947 60.3861 8.12892 60.2109 9.30437C60.1451 9.74667 60.1062 10.0771 60.0749 10.3655L60.0572 10.5278C60.0325 10.7636 60.0022 11.05 59.9643 11.319C59.849 12.1408 59.6605 12.8835 59.2891 13.997C59.0972 14.5714 58.9868 15.1378 58.8387 15.897L58.8364 15.9096C58.7565 16.3183 58.6659 16.783 58.5458 17.3346C57.7932 20.7916 56.1936 23.6893 54.8352 26.1502L54.6363 26.5105C53.1685 29.1748 51.3947 31.2799 49.7605 33.2188L49.2419 33.8357L48.8713 34.2744C51.8157 36.7778 54.0185 39.6984 55.3942 43.6632C56.3085 46.8209 56.2896 48.8226 55.7656 51.5951C55.5436 52.77 55.0719 53.8914 54.3407 54.8381C52.957 56.6288 51.5339 57.8927 49.5418 59.1108C47.0866 60.6121 44.1826 61.1473 41.3036 61.1473H18.3266C15.85 61.1473 13.3384 60.7776 11.1854 59.5543C8.78956 58.1928 7.33705 56.6663 5.98607 54.4391C5.19076 53.1278 4.85906 51.5967 4.85906 50.0638V45.1873C4.85906 44.1775 5 43.1649 5.3801 42.2291C6.75481 38.8467 8.9191 36.1952 11.9086 33.7786C11.6562 33.4864 11.3971 33.1829 11.1309 32.8654L10.6122 32.2485C8.97794 30.3096 7.20418 28.2045 5.73647 25.5403L5.53765 25.1799C4.17907 22.719 2.57944 19.8213 1.82685 16.3643C1.7068 15.8127 1.61616 15.348 1.53644 14.9393L1.53407 14.9267C1.38602 14.1675 1.27545 13.6011 1.08375 13.0267C0.712192 11.9132 0.523805 11.1705 0.408496 10.3487C0.370535 10.0798 0.340165 9.79327 0.31549 9.5575L0.297931 9.39525C0.266613 9.1068 0.227703 8.77638 0.161743 8.33408C-0.0133564 7.15863 -0.0247451 6.36918 0.0269783 5.57946C0.0407394 5.36533 0.0549753 5.19412 0.0673129 5.03932L0.068262 5.0293L0.0687364 5.02305C0.0976825 4.66862 0.119511 4.3964 0.119511 3.88117ZM15.767 38.6534C14.3102 39.7997 13.0494 41.0556 11.9646 42.573C11.0393 43.8673 10.69 45.4652 10.69 47.0557V48.6643C10.69 49.8451 10.9928 51.3797 11.7985 52.2443C13.7621 54.3504 16.8128 54.3436 19.7151 54.3372L20.1957 54.3364H21.746C21.1794 49.0939 18.7679 43.4736 15.767 38.6534ZM29.5543 54.3364H31.1611C31.6351 47.0006 34.7376 40.6425 38.3425 34.9866L38.4587 34.8064C36.277 33.4868 33.8132 32.0911 31.0998 30.6087C30.4971 30.2796 29.7649 30.2959 29.1727 30.6426C27.336 31.7179 25.6337 32.6608 24.0578 33.5337C23.4648 33.8623 22.8891 34.1811 22.331 34.4933C25.7943 40.0409 28.9778 47.1617 29.5543 54.3364ZM44.9014 39.154C41.6866 44.1978 39.4144 49.0912 38.9575 54.3364H41.0164C43.4531 54.3364 45.9999 54.0333 47.8567 52.4579C49.0085 51.481 49.5689 50.5843 49.5632 50.4552C49.5617 50.4199 49.5826 50.319 49.6153 50.162C49.7832 49.3557 50.2598 47.072 49.5632 44.6335C49.0849 42.9592 47.4781 41.1466 44.9099 39.1409L44.9014 39.154Z" transform="translate(117.543 1.7037)" fill="#FFC423"/>
<path fill-rule="evenodd" clip-rule="evenodd" d="M0.119511 3.88117C0.119511 1.73766 1.86007 0 4.00683 0C6.15357 0 7.89414 1.73766 7.89414 3.88117C7.89414 4.74679 7.83765 5.43413 7.80446 5.83674L7.785 6.08273C7.76934 6.32606 7.75795 6.56345 7.8519 7.19061C7.93731 7.76578 7.98856 8.20406 8.02701 8.55758L8.05548 8.82305L8.05785 8.84531C8.07824 9.03508 8.09012 9.14773 8.10767 9.27146C8.13568 9.47006 8.17789 9.72849 8.45976 10.572C8.81757 11.6438 9.08566 13.0101 9.2731 13.9646L9.27596 13.9794C9.33289 14.2705 9.38224 14.5226 9.42401 14.7154C9.93126 17.0436 11.0374 19.0558 12.5487 21.7994C13.6292 23.7607 14.9143 25.2903 16.614 27.3128L17.0937 27.8841C17.3979 28.247 17.7571 28.6586 18.1477 29.1061C18.2411 29.2132 18.337 29.3226 18.4338 29.4338C21.4508 27.6988 24.9439 25.9226 28.928 23.8968L29.2135 23.7514C29.783 23.4619 30.4645 23.47 31.0277 23.7712C32.4859 24.5511 33.8915 25.2862 35.2416 25.9924L35.2534 25.9986L35.2577 26.0008C37.8504 27.3568 40.2401 28.6068 42.4111 29.8631C42.7299 29.4977 43.0238 29.1589 43.279 28.8544L43.7587 28.2831C45.4584 26.2606 46.7436 24.731 47.824 22.7697C49.3354 20.0261 50.4416 18.0139 50.9488 15.6857C50.9904 15.4929 51.0398 15.2408 51.0968 14.9497L51.0997 14.9349L51.1006 14.9309C51.288 13.9766 51.5557 12.6126 51.9129 11.5423C52.1949 10.6988 52.2371 10.4404 52.2651 10.2418C52.2816 10.1246 52.2931 10.0174 52.3115 9.84529L52.3148 9.8156L52.3174 9.79334L52.3458 9.52787C52.3842 9.17436 52.4354 8.73607 52.5209 8.1609C52.6148 7.53374 52.6035 7.29635 52.5877 7.05302L52.5683 6.80703C52.5351 6.40442 52.4787 5.71708 52.4787 4.85147C52.4787 2.70795 54.2192 0.970293 56.366 0.970293C58.5128 0.970293 60.2533 2.70795 60.2533 4.85147C60.2533 5.36669 60.2751 5.63892 60.304 5.99335L60.3044 5.99959L60.3054 6.00961L60.3103 6.07068C60.3215 6.20951 60.334 6.36338 60.3458 6.54975C60.3975 7.33947 60.3861 8.12892 60.2109 9.30437C60.1451 9.74667 60.1062 10.0771 60.0749 10.3655L60.0572 10.5278C60.0325 10.7636 60.0022 11.05 59.9643 11.319C59.849 12.1408 59.6605 12.8835 59.2891 13.997C59.0972 14.5714 58.9868 15.1378 58.8387 15.897L58.8364 15.9096C58.7565 16.3183 58.6659 16.783 58.5458 17.3346C57.7932 20.7916 56.1936 23.6893 54.8352 26.1502L54.6363 26.5105C53.1685 29.1748 51.3947 31.2799 49.7605 33.2188L49.2419 33.8357L48.8713 34.2744C51.8157 36.7778 54.0185 39.6984 55.3942 43.6632C56.3085 46.8209 56.2896 48.8226 55.7656 51.5951C55.5436 52.77 55.0719 53.8914 54.3407 54.8381C52.957 56.6288 51.5339 57.8927 49.5418 59.1108C47.0866 60.6121 44.1826 61.1473 41.3036 61.1473H18.3266C15.85 61.1473 13.3384 60.7776 11.1854 59.5543C8.78956 58.1928 7.33705 56.6663 5.98607 54.4391C5.19076 53.1278 4.85906 51.5967 4.85906 50.0638V45.1873C4.85906 44.1775 5 43.1649 5.3801 42.2291C6.75481 38.8467 8.9191 36.1952 11.9086 33.7786C11.6562 33.4864 11.3971 33.1829 11.1309 32.8654L10.6122 32.2485C8.97794 30.3096 7.20418 28.2045 5.73647 25.5403L5.53765 25.1799C4.17907 22.719 2.57944 19.8213 1.82685 16.3643C1.7068 15.8127 1.61616 15.348 1.53644 14.9393L1.53407 14.9267C1.38602 14.1675 1.27545 13.6011 1.08375 13.0267C0.712192 11.9132 0.523805 11.1705 0.408496 10.3487C0.370535 10.0798 0.340165 9.79327 0.31549 9.5575L0.297931 9.39525C0.266613 9.1068 0.227703 8.77638 0.161743 8.33408C-0.0133564 7.15863 -0.0247451 6.36918 0.0269783 5.57946C0.0407394 5.36533 0.0549753 5.19412 0.0673129 5.03932L0.068262 5.0293L0.0687364 5.02305C0.0976825 4.66862 0.119511 4.3964 0.119511 3.88117ZM15.767 38.6534C14.3102 39.7997 13.0494 41.0556 11.9646 42.573C11.0393 43.8673 10.69 45.4652 10.69 47.0557V48.6643C10.69 49.8451 10.9928 51.3797 11.7985 52.2443C13.7621 54.3504 16.8128 54.3436 19.7151 54.3372L20.1957 54.3364H21.746C21.1794 49.0939 18.7679 43.4736 15.767 38.6534ZM29.5543 54.3364H31.1611C31.6351 47.0006 34.7376 40.6425 38.3425 34.9866L38.4587 34.8064C36.277 33.4868 33.8132 32.0911 31.0998 30.6087C30.4971 30.2796 29.7649 30.2959 29.1727 30.6426C27.336 31.7179 25.6337 32.6608 24.0578 33.5337C23.4648 33.8623 22.8891 34.1811 22.331 34.4933C25.7943 40.0409 28.9778 47.1617 29.5543 54.3364ZM44.9014 39.154C41.6866 44.1978 39.4144 49.0912 38.9575 54.3364H41.0164C43.4531 54.3364 45.9999 54.0333 47.8567 52.4579C49.0085 51.481 49.5689 50.5843 49.5632 50.4552C49.5617 50.4199 49.5826 50.319 49.6153 50.162C49.7832 49.3557 50.2598 47.072 49.5632 44.6335C49.0849 42.9592 47.4781 41.1466 44.9099 39.1409L44.9014 39.154Z" transform="translate(117.543 1.7037)" fill="#2A2A2A"/>
<path d="M0 1.79504C0 0.803669 0.80494 0 1.79788 0H19.5823C20.5753 0 21.3802 0.803669 21.3802 1.79504C21.3802 2.78641 20.5753 3.59009 19.5823 3.59009H1.79788C0.80494 3.59009 0 2.78641 0 1.79504Z" transform="translate(136.981 14.5115)" fill="#EB5757"/>
<path d="M0 1.79504C0 0.803669 0.80494 0 1.79788 0H19.5823C20.5753 0 21.3802 0.803669 21.3802 1.79504C21.3802 2.78641 20.5753 3.59009 19.5823 3.59009H1.79788C0.80494 3.59009 0 2.78641 0 1.79504Z" transform="translate(136.981 14.5115)" fill="#F2C94C"/>
<path d="M13.7939 0.18996C14.0763 -0.0587787 14.4991 -0.0643827 14.7854 0.179898C17.2384 2.27281 18.6666 4.19883 21.0888 7.52546C23.2795 3.7085 24.3683 2.36072 25.9481 1.7037C26.8696 1.46788 27.7155 1.72357 28.477 2.43037C29.1445 3.04971 28.9623 4.08041 28.403 4.79845C27.4255 6.05315 26.3668 8.00548 24.5876 12.3769H14.2861H4.59125C4.22001 12.3769 3.88122 12.1658 3.71818 11.8328L0.56864 5.40073C0.0105793 4.26104 -0.396112 2.71304 0.639585 1.97816C1.56678 1.32025 2.88264 1.68872 3.59596 1.7037C4.99851 2.24138 5.15868 3.75484 7.4832 7.52546C9.70977 4.45396 10.9993 2.65113 13.7939 0.18996Z" transform="translate(133.385)" fill="#EB5757"/>
<path d="M13.7939 0.18996C14.0763 -0.0587787 14.4991 -0.0643827 14.7854 0.179898C17.2384 2.27281 18.6666 4.19883 21.0888 7.52546C23.2795 3.7085 24.3683 2.36072 25.9481 1.7037C26.8696 1.46788 27.7155 1.72357 28.477 2.43037C29.1445 3.04971 28.9623 4.08041 28.403 4.79845C27.4255 6.05315 26.3668 8.00548 24.5876 12.3769H14.2861H4.59125C4.22001 12.3769 3.88122 12.1658 3.71818 11.8328L0.56864 5.40073C0.0105793 4.26104 -0.396112 2.71304 0.639585 1.97816C1.56678 1.32025 2.88264 1.68872 3.59596 1.7037C4.99851 2.24138 5.15868 3.75484 7.4832 7.52546C9.70977 4.45396 10.9993 2.65113 13.7939 0.18996Z" transform="translate(133.385)" fill="#F2C94C"/>
</svg>
