<svg width="272" height="103" viewBox="0 0 272 103" fill="none" xmlns="http://www.w3.org/2000/svg">
<path fill-rule="evenodd" clip-rule="evenodd" d="M51.832 102.624C80.4585 102.624 103.665 79.6511 103.665 51.3122C103.665 22.9733 80.4585 0 51.832 0C23.2061 0 0 22.9733 0 51.3122C0 79.6511 23.2061 102.624 51.832 102.624ZM51.9399 81.33C68.4756 81.33 81.8799 68.0485 81.8799 51.665C81.8799 35.2815 68.4756 22 51.9399 22C35.4048 22 22 35.2815 22 51.665C22 68.0485 35.4048 81.33 51.9399 81.33Z" fill="#2A2A2A"/>
<path d="M3 0L5.59808 6H0.401924L3 0Z" transform="translate(193 102) scale(1 -1)" fill="#FFC423"/>
<path d="M3 0L5.59808 6H0.401924L3 0Z" transform="translate(193 102) scale(1 -1)" fill="#2A2A2A"/>
<path fill-rule="evenodd" clip-rule="evenodd" d="M5.47585 0L68.9761 22.5C65.3653 25.4191 62.5139 28.3973 60.0196 31.3486C53.47 42.7807 48.6089 48.2723 44.4761 49.5C35.1966 50.1398 30.8587 43.9627 28.9761 38.5C28.01 34.5054 28.4116 31.6343 28.4761 31.5C11.8216 26.2297 4.5884 20.5467 1.47585 14C-0.974584 10.0759 -0.837377 1.21587 5.47585 0ZM23.4229 10.3233C17.8294 8.36955 12.1616 6.38976 5.47585 4C4.2283 5.54443 3.47 7.08173 3.50662 8.85982L31.6341 18.6779C32.2874 17.267 33.0962 15.7828 34.1258 14.0754C30.4309 12.7713 26.9417 11.5525 23.4229 10.3233ZM38.1526 15.5021C37.0601 17.2071 36.1765 18.6734 35.4571 20.0123L54.9568 26.8188C57.0117 26.0748 59.1695 25.1443 61.4759 24C52.1077 20.5139 44.7151 17.8366 38.1526 15.5021ZM30.271 22.1918L4.8323 12.9906C5.36624 13.9167 6.07327 14.914 6.97585 16C13.8123 21.7757 18.9864 24.906 29.022 27.7166C29.3672 25.6237 29.7461 23.8691 30.271 22.1918ZM32.5369 28.5884C32.8216 26.7403 33.218 25.1361 33.846 23.485L48.2212 28.6845C42.9385 29.6744 38.0506 29.4399 32.5369 28.5884ZM54.7132 31.0148C55.3086 30.8555 55.898 30.6841 56.4759 30.5C52.9729 34.4746 49.9434 39.326 48.4964 41.6434L48.4949 41.6457L48.4939 41.6473L48.2879 41.9772C47.1382 42.9628 46.2376 43.7325 45.5266 44.3333C43.3811 46.1468 40.468 46.2013 38.1768 44.5754C37.8553 44.3473 37.554 44.1218 37.2703 43.9094L37.2576 43.8999C36.9807 43.6925 36.7207 43.4979 36.4746 43.3259L54.7132 31.0148ZM45.8086 32.6093C44.0479 32.7943 42.5515 32.8788 41.5447 32.8911L40.1814 32.8711C33.9082 32.779 32.8855 32.764 31.6228 32.7955C31.365 34.6131 32.5017 37.9133 32.9759 39L32.9846 39.0203L32.9864 39.0241C33.1404 39.377 33.3767 39.9183 33.7222 40.512L45.8086 32.6093Z" transform="translate(120 22.5)" fill="#FFC423"/>
<path fill-rule="evenodd" clip-rule="evenodd" d="M5.47585 0L68.9761 22.5C65.3653 25.4191 62.5139 28.3973 60.0196 31.3486C53.47 42.7807 48.6089 48.2723 44.4761 49.5C35.1966 50.1398 30.8587 43.9627 28.9761 38.5C28.01 34.5054 28.4116 31.6343 28.4761 31.5C11.8216 26.2297 4.5884 20.5467 1.47585 14C-0.974584 10.0759 -0.837377 1.21587 5.47585 0ZM23.4229 10.3233C17.8294 8.36955 12.1616 6.38976 5.47585 4C4.2283 5.54443 3.47 7.08173 3.50662 8.85982L31.6341 18.6779C32.2874 17.267 33.0962 15.7828 34.1258 14.0754C30.4309 12.7713 26.9417 11.5525 23.4229 10.3233ZM38.1526 15.5021C37.0601 17.2071 36.1765 18.6734 35.4571 20.0123L54.9568 26.8188C57.0117 26.0748 59.1695 25.1443 61.4759 24C52.1077 20.5139 44.7151 17.8366 38.1526 15.5021ZM30.271 22.1918L4.8323 12.9906C5.36624 13.9167 6.07327 14.914 6.97585 16C13.8123 21.7757 18.9864 24.906 29.022 27.7166C29.3672 25.6237 29.7461 23.8691 30.271 22.1918ZM32.5369 28.5884C32.8216 26.7403 33.218 25.1361 33.846 23.485L48.2212 28.6845C42.9385 29.6744 38.0506 29.4399 32.5369 28.5884ZM54.7132 31.0148C55.3086 30.8555 55.898 30.6841 56.4759 30.5C52.9729 34.4746 49.9434 39.326 48.4964 41.6434L48.4949 41.6457L48.4939 41.6473L48.2879 41.9772C47.1382 42.9628 46.2376 43.7325 45.5266 44.3333C43.3811 46.1468 40.468 46.2013 38.1768 44.5754C37.8553 44.3473 37.554 44.1218 37.2703 43.9094L37.2576 43.8999C36.9807 43.6925 36.7207 43.4979 36.4746 43.3259L54.7132 31.0148ZM45.8086 32.6093C44.0479 32.7943 42.5515 32.8788 41.5447 32.8911L40.1814 32.8711C33.9082 32.779 32.8855 32.764 31.6228 32.7955C31.365 34.6131 32.5017 37.9133 32.9759 39L32.9846 39.0203L32.9864 39.0241C33.1404 39.377 33.3767 39.9183 33.7222 40.512L45.8086 32.6093Z" transform="translate(120 22.5)" fill="#2A2A2A"/>
<path fill-rule="evenodd" clip-rule="evenodd" d="M5.47585 0L68.9761 22.5C65.3653 25.4191 62.5139 28.3973 60.0196 31.3486C53.47 42.7807 48.6089 48.2723 44.4761 49.5C35.1966 50.1398 30.8587 43.9627 28.9761 38.5C28.01 34.5054 28.4116 31.6343 28.4761 31.5C11.8216 26.2297 4.5884 20.5467 1.47585 14C-0.974584 10.0759 -0.837377 1.21587 5.47585 0ZM23.4229 10.3233C17.8294 8.36955 12.1616 6.38976 5.47585 4C4.2283 5.54443 3.47 7.08173 3.50662 8.85982L31.6341 18.6779C32.2874 17.267 33.0962 15.7828 34.1258 14.0754C30.4309 12.7713 26.9417 11.5525 23.4229 10.3233ZM38.1526 15.5021C44.7151 17.8366 52.1077 20.5139 61.4759 24C59.1695 25.1443 57.0117 26.0748 54.9568 26.8188L35.4571 20.0123C36.1765 18.6734 37.0601 17.2071 38.1526 15.5021ZM33.846 23.485L48.2212 28.6845C42.9385 29.6744 38.0506 29.4399 32.5369 28.5884C32.8216 26.7403 33.218 25.1361 33.846 23.485ZM29.022 27.7166C18.9864 24.906 13.8123 21.7757 6.97585 16C6.07327 14.914 5.36624 13.9167 4.8323 12.9906L30.271 22.1918C29.7461 23.8691 29.3672 25.6237 29.022 27.7166ZM54.7132 31.0148C55.3086 30.8555 55.898 30.6841 56.4759 30.5C52.9729 34.4746 49.9434 39.326 48.4964 41.6434L48.4949 41.6457L48.4939 41.6473L48.2879 41.9772C47.1382 42.9628 46.2376 43.7325 45.5266 44.3333C43.3811 46.1468 40.468 46.2013 38.1768 44.5754C37.8553 44.3473 37.554 44.1218 37.2703 43.9094L37.2576 43.8999C36.9807 43.6925 36.7207 43.4979 36.4746 43.3259L54.7132 31.0148ZM45.8086 32.6093L33.7222 40.512C33.3767 39.9183 33.1404 39.377 32.9864 39.0241L32.9846 39.0203L32.9759 39C32.5017 37.9133 31.365 34.6131 31.6228 32.7955C32.8855 32.764 33.9082 32.779 40.1814 32.8711L41.5447 32.8911C42.5515 32.8788 44.0479 32.7943 45.8086 32.6093Z" transform="translate(271.776 22.5) scale(-1 1)" fill="#FFC423"/>
<path fill-rule="evenodd" clip-rule="evenodd" d="M5.47585 0L68.9761 22.5C65.3653 25.4191 62.5139 28.3973 60.0196 31.3486C53.47 42.7807 48.6089 48.2723 44.4761 49.5C35.1966 50.1398 30.8587 43.9627 28.9761 38.5C28.01 34.5054 28.4116 31.6343 28.4761 31.5C11.8216 26.2297 4.5884 20.5467 1.47585 14C-0.974584 10.0759 -0.837377 1.21587 5.47585 0ZM23.4229 10.3233C17.8294 8.36955 12.1616 6.38976 5.47585 4C4.2283 5.54443 3.47 7.08173 3.50662 8.85982L31.6341 18.6779C32.2874 17.267 33.0962 15.7828 34.1258 14.0754C30.4309 12.7713 26.9417 11.5525 23.4229 10.3233ZM38.1526 15.5021C44.7151 17.8366 52.1077 20.5139 61.4759 24C59.1695 25.1443 57.0117 26.0748 54.9568 26.8188L35.4571 20.0123C36.1765 18.6734 37.0601 17.2071 38.1526 15.5021ZM33.846 23.485L48.2212 28.6845C42.9385 29.6744 38.0506 29.4399 32.5369 28.5884C32.8216 26.7403 33.218 25.1361 33.846 23.485ZM29.022 27.7166C18.9864 24.906 13.8123 21.7757 6.97585 16C6.07327 14.914 5.36624 13.9167 4.8323 12.9906L30.271 22.1918C29.7461 23.8691 29.3672 25.6237 29.022 27.7166ZM54.7132 31.0148C55.3086 30.8555 55.898 30.6841 56.4759 30.5C52.9729 34.4746 49.9434 39.326 48.4964 41.6434L48.4949 41.6457L48.4939 41.6473L48.2879 41.9772C47.1382 42.9628 46.2376 43.7325 45.5266 44.3333C43.3811 46.1468 40.468 46.2013 38.1768 44.5754C37.8553 44.3473 37.554 44.1218 37.2703 43.9094L37.2576 43.8999C36.9807 43.6925 36.7207 43.4979 36.4746 43.3259L54.7132 31.0148ZM45.8086 32.6093L33.7222 40.512C33.3767 39.9183 33.1404 39.377 32.9864 39.0241L32.9846 39.0203L32.9759 39C32.5017 37.9133 31.365 34.6131 31.6228 32.7955C32.8855 32.764 33.9082 32.779 40.1814 32.8711L41.5447 32.8911C42.5515 32.8788 44.0479 32.7943 45.8086 32.6093Z" transform="translate(271.776 22.5) scale(-1 1)" fill="#2A2A2A"/>
<path fill-rule="evenodd" clip-rule="evenodd" d="M15 48.5C16.5 48.5 30 40.5 30 24C30 9 17 0 15 0C13 0 0 9 0 24C0 39.5 13.5 48.5 15 48.5ZM15 45C15.6956 45 18.9382 42.7104 21.8037 38.5139C20.4846 38.6045 12.8269 39.0919 8.22778 38.5291C11.0854 42.7051 14.3071 45 15 45ZM25.9089 29.0448C25.5413 30.7404 25.0217 32.3158 24.4062 33.7637C16.6907 37.1337 12.0325 36.8911 5.5 33.5L5.50244 33.5128C4.93018 32.1344 4.44604 30.6442 4.09717 29.0489C9.25171 31.6072 20.8975 31.4805 25.9089 29.0448ZM26.4224 25.5311C26.4734 24.8687 26.5 24.1916 26.5 23.5C26.5 22.686 26.4414 21.8781 26.3323 21.0801C21.2166 23.4569 8.79834 23.5762 3.67432 21.0871C3.56104 21.8855 3.5 22.6913 3.5 23.5C3.5 24.1929 3.5271 24.8717 3.57886 25.5357C10.2461 28.5412 18.4094 28.7287 26.4224 25.5311ZM23.8533 13.5493C24.5007 14.8069 25.072 16.1422 25.5168 17.5311L25.5 17.5C17.5764 20.5013 11.3484 20.2071 4.52368 17.5093C4.9751 16.139 5.55103 14.8151 6.20117 13.5641C11.4585 15.2085 19.0767 15.1295 23.8533 13.5493ZM22.1057 10.5815C19.2715 6.31831 15.9441 3.5 15 3.5C14.0698 3.5 10.8252 6.31407 8.01855 10.5034C8.73926 10.6353 9.38403 10.7569 9.96826 10.867C15.0393 11.823 15.5837 11.9257 22.1057 10.5815Z" transform="translate(180.976 50)" fill="#FFC423"/>
<path fill-rule="evenodd" clip-rule="evenodd" d="M15 48.5C16.5 48.5 30 40.5 30 24C30 9 17 0 15 0C13 0 0 9 0 24C0 39.5 13.5 48.5 15 48.5ZM15 45C15.6956 45 18.9382 42.7104 21.8037 38.5139C20.4846 38.6045 12.8269 39.0919 8.22778 38.5291C11.0854 42.7051 14.3071 45 15 45ZM25.9089 29.0448C25.5413 30.7404 25.0217 32.3158 24.4062 33.7637C16.6907 37.1337 12.0325 36.8911 5.5 33.5L5.50244 33.5128C4.93018 32.1344 4.44604 30.6442 4.09717 29.0489C9.25171 31.6072 20.8975 31.4805 25.9089 29.0448ZM26.4224 25.5311C26.4734 24.8687 26.5 24.1916 26.5 23.5C26.5 22.686 26.4414 21.8781 26.3323 21.0801C21.2166 23.4569 8.79834 23.5762 3.67432 21.0871C3.56104 21.8855 3.5 22.6913 3.5 23.5C3.5 24.1929 3.5271 24.8717 3.57886 25.5357C10.2461 28.5412 18.4094 28.7287 26.4224 25.5311ZM23.8533 13.5493C24.5007 14.8069 25.072 16.1422 25.5168 17.5311L25.5 17.5C17.5764 20.5013 11.3484 20.2071 4.52368 17.5093C4.9751 16.139 5.55103 14.8151 6.20117 13.5641C11.4585 15.2085 19.0767 15.1295 23.8533 13.5493ZM22.1057 10.5815C19.2715 6.31831 15.9441 3.5 15 3.5C14.0698 3.5 10.8252 6.31407 8.01855 10.5034C8.73926 10.6353 9.38403 10.7569 9.96826 10.867C15.0393 11.823 15.5837 11.9257 22.1057 10.5815Z" transform="translate(180.976 50)" fill="#2A2A2A"/>
<path fill-rule="evenodd" clip-rule="evenodd" d="M0.0614876 2C0.0614876 0.895432 0.956995 0 2.06149 0C3.16598 0 4.06149 0.895432 4.06149 2C4.06149 2.44606 4.03243 2.80025 4.01535 3.00772L4.00534 3.13448C3.99728 3.25987 3.99142 3.3822 4.03976 3.70538C4.0837 4.00177 4.11007 4.22762 4.12985 4.40979L4.1445 4.54659L4.14572 4.55806C4.15621 4.65585 4.16232 4.7139 4.17135 4.77766C4.18576 4.88 4.20748 5.01317 4.3525 5.44783C4.53659 6.00017 4.67452 6.70422 4.77096 7.19606L4.77243 7.20369C4.80172 7.3537 4.82711 7.48361 4.8486 7.58296C5.10958 8.78271 5.67868 9.81961 6.45626 11.2334C7.01217 12.2441 7.6733 13.0323 8.54782 14.0745L8.79464 14.3689C8.95114 14.5559 9.13595 14.768 9.33688 14.9986C9.38497 15.0538 9.43429 15.1102 9.48409 15.1675C11.0363 14.2734 12.8335 13.3581 14.8833 12.3142L15.0302 12.2393C15.3232 12.0901 15.6738 12.0943 15.9636 12.2495C16.7138 12.6514 17.437 13.0302 18.1316 13.3941L18.1377 13.3973L18.1399 13.3984C19.4738 14.0972 20.7033 14.7413 21.8203 15.3887C21.9843 15.2004 22.1355 15.0258 22.2668 14.8689L22.5136 14.5745C23.3881 13.5323 24.0493 12.7441 24.6052 11.7334C25.3828 10.3196 25.9519 9.28271 26.2129 8.08296C26.2343 7.98361 26.2597 7.8537 26.289 7.70369L26.2905 7.69606L26.291 7.694C26.3874 7.20226 26.5251 6.49939 26.7089 5.94783C26.854 5.51317 26.8757 5.38 26.8901 5.27766C26.8986 5.2173 26.9045 5.16205 26.914 5.07336L26.9157 5.05806L26.917 5.04659L26.9316 4.90979C26.9514 4.72762 26.9777 4.50177 27.0217 4.20538C27.07 3.8822 27.0642 3.75987 27.0561 3.63448L27.0461 3.50772C27.029 3.30025 27 2.94606 27 2.5C27 1.39543 27.8955 0.5 29 0.5C30.1045 0.5 31 1.39543 31 2.5C31 2.7655 31.0112 2.90578 31.0261 3.08842L31.0263 3.09164L31.0268 3.0968L31.0293 3.12827C31.0351 3.19981 31.0415 3.2791 31.0476 3.37514C31.0742 3.78209 31.0683 4.1889 30.9782 4.79462C30.9443 5.02254 30.9243 5.19281 30.9082 5.34145L30.8991 5.42506C30.8864 5.54655 30.8708 5.69418 30.8513 5.83275C30.792 6.25627 30.695 6.63895 30.5039 7.21275C30.4052 7.50876 30.3484 7.80061 30.2722 8.19185L30.271 8.19833C30.2299 8.40897 30.1833 8.64841 30.1215 8.93268C29.7343 10.7141 28.9113 12.2073 28.2124 13.4754L28.1101 13.6611C27.3549 15.034 26.4423 16.1188 25.6015 17.1179L25.3347 17.4358L25.144 17.6619C26.6589 18.9519 27.7922 20.4569 28.5 22.5C28.9704 24.1272 28.9607 25.1587 28.6911 26.5874C28.5769 27.1928 28.3342 27.7707 27.958 28.2585C27.2461 29.1813 26.5139 29.8326 25.489 30.4603C24.2258 31.2339 22.7317 31.5097 21.2505 31.5097H9.42892C8.15475 31.5097 6.86251 31.3192 5.75485 30.6888C4.52218 29.9872 3.77487 29.2006 3.0798 28.0529C2.67062 27.3772 2.49996 26.5882 2.49996 25.7983V23.2854C2.49996 22.765 2.57247 22.2432 2.76803 21.761C3.47531 20.018 4.58883 18.6517 6.12692 17.4064C5.99703 17.2558 5.86373 17.0994 5.72677 16.9358L5.45993 16.6179C4.6191 15.6188 3.70651 14.534 2.95138 13.1611L2.84909 12.9754C2.15011 11.7073 1.32711 10.2141 0.939906 8.43268C0.878138 8.14841 0.831507 7.90897 0.790492 7.69833L0.789271 7.69185C0.713099 7.30061 0.656214 7.00876 0.557581 6.71275C0.366419 6.13895 0.269495 5.75627 0.210169 5.33275C0.190638 5.19418 0.175013 5.04655 0.162318 4.92506L0.153284 4.84145C0.137171 4.69281 0.117152 4.52254 0.0832161 4.29462C-0.00687179 3.6889 -0.0127312 3.28209 0.0138802 2.87514C0.0209602 2.7648 0.0282845 2.67657 0.0346321 2.5968L0.0351204 2.59164L0.0353645 2.58842C0.0502571 2.40578 0.0614876 2.2655 0.0614876 2ZM8.11202 19.9184C7.36251 20.5091 6.71383 21.1563 6.15573 21.9382C5.67965 22.6052 5.49996 23.4286 5.49996 24.2482V25.0771C5.49996 25.6856 5.65573 26.4764 6.07028 26.9219C7.08053 28.0072 8.65011 28.0037 10.1433 28.0004L10.3906 28H11.1882C10.8967 25.2985 9.65597 22.4023 8.11202 19.9184ZM15.2055 28H16.0322C16.2761 24.2198 17.8723 20.9434 19.727 18.0289L19.7868 17.936C18.6643 17.256 17.3967 16.5368 16.0007 15.7729C15.6906 15.6033 15.3139 15.6117 15.0092 15.7904C14.0642 16.3445 13.1884 16.8304 12.3776 17.2802C12.0725 17.4495 11.7763 17.6138 11.4892 17.7747C13.271 20.6334 14.9089 24.3028 15.2055 28ZM23.1015 20.1764C21.4475 22.7755 20.2785 25.2971 20.0434 28H21.1027C22.3564 28 23.6667 27.8438 24.622 27.032C25.2146 26.5286 25.5029 26.0665 25.5 26C25.4992 25.9818 25.51 25.9298 25.5268 25.8489C25.6132 25.4334 25.8584 24.2566 25.5 23C25.2539 22.1372 24.4272 21.2032 23.1059 20.1696L23.1015 20.1764Z" transform="translate(180.476 6)" fill="#FFC423"/>
<path fill-rule="evenodd" clip-rule="evenodd" d="M0.0614876 2C0.0614876 0.895432 0.956995 0 2.06149 0C3.16598 0 4.06149 0.895432 4.06149 2C4.06149 2.44606 4.03243 2.80025 4.01535 3.00772L4.00534 3.13448C3.99728 3.25987 3.99142 3.3822 4.03976 3.70538C4.0837 4.00177 4.11007 4.22762 4.12985 4.40979L4.1445 4.54659L4.14572 4.55806C4.15621 4.65585 4.16232 4.7139 4.17135 4.77766C4.18576 4.88 4.20748 5.01317 4.3525 5.44783C4.53659 6.00017 4.67452 6.70422 4.77096 7.19606L4.77243 7.20369C4.80172 7.3537 4.82711 7.48361 4.8486 7.58296C5.10958 8.78271 5.67868 9.81961 6.45626 11.2334C7.01217 12.2441 7.6733 13.0323 8.54782 14.0745L8.79464 14.3689C8.95114 14.5559 9.13595 14.768 9.33688 14.9986C9.38497 15.0538 9.43429 15.1102 9.48409 15.1675C11.0363 14.2734 12.8335 13.3581 14.8833 12.3142L15.0302 12.2393C15.3232 12.0901 15.6738 12.0943 15.9636 12.2495C16.7138 12.6514 17.437 13.0302 18.1316 13.3941L18.1377 13.3973L18.1399 13.3984C19.4738 14.0972 20.7033 14.7413 21.8203 15.3887C21.9843 15.2004 22.1355 15.0258 22.2668 14.8689L22.5136 14.5745C23.3881 13.5323 24.0493 12.7441 24.6052 11.7334C25.3828 10.3196 25.9519 9.28271 26.2129 8.08296C26.2343 7.98361 26.2597 7.8537 26.289 7.70369L26.2905 7.69606L26.291 7.694C26.3874 7.20226 26.5251 6.49939 26.7089 5.94783C26.854 5.51317 26.8757 5.38 26.8901 5.27766C26.8986 5.2173 26.9045 5.16205 26.914 5.07336L26.9157 5.05806L26.917 5.04659L26.9316 4.90979C26.9514 4.72762 26.9777 4.50177 27.0217 4.20538C27.07 3.8822 27.0642 3.75987 27.0561 3.63448L27.0461 3.50772C27.029 3.30025 27 2.94606 27 2.5C27 1.39543 27.8955 0.5 29 0.5C30.1045 0.5 31 1.39543 31 2.5C31 2.7655 31.0112 2.90578 31.0261 3.08842L31.0263 3.09164L31.0268 3.0968L31.0293 3.12827C31.0351 3.19981 31.0415 3.2791 31.0476 3.37514C31.0742 3.78209 31.0683 4.1889 30.9782 4.79462C30.9443 5.02254 30.9243 5.19281 30.9082 5.34145L30.8991 5.42506C30.8864 5.54655 30.8708 5.69418 30.8513 5.83275C30.792 6.25627 30.695 6.63895 30.5039 7.21275C30.4052 7.50876 30.3484 7.80061 30.2722 8.19185L30.271 8.19833C30.2299 8.40897 30.1833 8.64841 30.1215 8.93268C29.7343 10.7141 28.9113 12.2073 28.2124 13.4754L28.1101 13.6611C27.3549 15.034 26.4423 16.1188 25.6015 17.1179L25.3347 17.4358L25.144 17.6619C26.6589 18.9519 27.7922 20.4569 28.5 22.5C28.9704 24.1272 28.9607 25.1587 28.6911 26.5874C28.5769 27.1928 28.3342 27.7707 27.958 28.2585C27.2461 29.1813 26.5139 29.8326 25.489 30.4603C24.2258 31.2339 22.7317 31.5097 21.2505 31.5097H9.42892C8.15475 31.5097 6.86251 31.3192 5.75485 30.6888C4.52218 29.9872 3.77487 29.2006 3.0798 28.0529C2.67062 27.3772 2.49996 26.5882 2.49996 25.7983V23.2854C2.49996 22.765 2.57247 22.2432 2.76803 21.761C3.47531 20.018 4.58883 18.6517 6.12692 17.4064C5.99703 17.2558 5.86373 17.0994 5.72677 16.9358L5.45993 16.6179C4.6191 15.6188 3.70651 14.534 2.95138 13.1611L2.84909 12.9754C2.15011 11.7073 1.32711 10.2141 0.939906 8.43268C0.878138 8.14841 0.831507 7.90897 0.790492 7.69833L0.789271 7.69185C0.713099 7.30061 0.656214 7.00876 0.557581 6.71275C0.366419 6.13895 0.269495 5.75627 0.210169 5.33275C0.190638 5.19418 0.175013 5.04655 0.162318 4.92506L0.153284 4.84145C0.137171 4.69281 0.117152 4.52254 0.0832161 4.29462C-0.00687179 3.6889 -0.0127312 3.28209 0.0138802 2.87514C0.0209602 2.7648 0.0282845 2.67657 0.0346321 2.5968L0.0351204 2.59164L0.0353645 2.58842C0.0502571 2.40578 0.0614876 2.2655 0.0614876 2ZM8.11202 19.9184C7.36251 20.5091 6.71383 21.1563 6.15573 21.9382C5.67965 22.6052 5.49996 23.4286 5.49996 24.2482V25.0771C5.49996 25.6856 5.65573 26.4764 6.07028 26.9219C7.08053 28.0072 8.65011 28.0037 10.1433 28.0004L10.3906 28H11.1882C10.8967 25.2985 9.65597 22.4023 8.11202 19.9184ZM15.2055 28H16.0322C16.2761 24.2198 17.8723 20.9434 19.727 18.0289L19.7868 17.936C18.6643 17.256 17.3967 16.5368 16.0007 15.7729C15.6906 15.6033 15.3139 15.6117 15.0092 15.7904C14.0642 16.3445 13.1884 16.8304 12.3776 17.2802C12.0725 17.4495 11.7763 17.6138 11.4892 17.7747C13.271 20.6334 14.9089 24.3028 15.2055 28ZM23.1015 20.1764C21.4475 22.7755 20.2785 25.2971 20.0434 28H21.1027C22.3564 28 23.6667 27.8438 24.622 27.032C25.2146 26.5286 25.5029 26.0665 25.5 26C25.4992 25.9818 25.51 25.9298 25.5268 25.8489C25.6132 25.4334 25.8584 24.2566 25.5 23C25.2539 22.1372 24.4272 21.2032 23.1059 20.1696L23.1015 20.1764Z" transform="translate(180.476 6)" fill="#2A2A2A"/>
<path d="M0 0.925C0 0.414137 0.414137 0 0.925 0H10.075C10.5859 0 11 0.414137 11 0.925C11 1.43586 10.5859 1.85 10.075 1.85H0.925C0.414137 1.85 0 1.43586 0 0.925Z" transform="translate(190.476 12.6)" fill="#EB5757"/>
<path d="M0 0.925C0 0.414137 0.414137 0 0.925 0H10.075C10.5859 0 11 0.414137 11 0.925C11 1.43586 10.5859 1.85 10.075 1.85H0.925C0.414137 1.85 0 1.43586 0 0.925Z" transform="translate(190.476 12.6)" fill="#F2C94C"/>
<path d="M7.24683 0.219958C7.39214 0.091781 7.60962 0.0888932 7.75692 0.214773C9.01898 1.29327 9.75378 2.28576 11 4C12.1271 2.03309 12.6873 1.33857 13.5001 1C13.9742 0.878479 14.4094 1.01024 14.8012 1.37446C15.1446 1.69361 15.0509 2.22474 14.7631 2.59475C14.2602 3.24131 13.7155 4.24736 12.8001 6.5H7.50005H2.51211C2.32111 6.5 2.1468 6.39119 2.06292 6.2196L0.442498 2.90511C0.155379 2.31782 -0.0538614 1.52012 0.478999 1.14143C0.956036 0.802406 1.63304 0.992281 2.00004 1C2.72164 1.27707 2.80405 2.05697 4 4C5.14556 2.41723 5.80903 1.48822 7.24683 0.219958Z" transform="translate(188.476 5)" fill="#EB5757"/>
<path d="M7.24683 0.219958C7.39214 0.091781 7.60962 0.0888932 7.75692 0.214773C9.01898 1.29327 9.75378 2.28576 11 4C12.1271 2.03309 12.6873 1.33857 13.5001 1C13.9742 0.878479 14.4094 1.01024 14.8012 1.37446C15.1446 1.69361 15.0509 2.22474 14.7631 2.59475C14.2602 3.24131 13.7155 4.24736 12.8001 6.5H7.50005H2.51211C2.32111 6.5 2.1468 6.39119 2.06292 6.2196L0.442498 2.90511C0.155379 2.31782 -0.0538614 1.52012 0.478999 1.14143C0.956036 0.802406 1.63304 0.992281 2.00004 1C2.72164 1.27707 2.80405 2.05697 4 4C5.14556 2.41723 5.80903 1.48822 7.24683 0.219958Z" transform="translate(188.476 5)" fill="#F2C94C"/>
</svg>
