<svg width="272" height="103" viewBox="0 0 272 103" fill="none" xmlns="http://www.w3.org/2000/svg">
<path fill-rule="evenodd" clip-rule="evenodd" d="M51.832 102.625C80.458 102.625 103.664 79.6511 103.664 51.3123C103.664 22.9731 80.458 0 51.832 0C23.2061 0 0 22.9731 0 51.3123C0 79.6511 23.2061 102.625 51.832 102.625ZM51.9404 81.3301C68.4756 81.3301 81.8799 68.0486 81.8799 51.665C81.8799 35.2815 68.4756 22 51.9404 22C35.4043 22 22 35.2815 22 51.665C22 68.0486 35.4043 81.3301 51.9404 81.3301Z" fill="#EEEEEE"/>
<path fill-rule="evenodd" clip-rule="evenodd" d="M5.47555 0L68.9756 22.5C65.3642 25.4192 62.5136 28.3972 60.0195 31.3486C53.4697 42.7808 48.6084 48.2722 44.4756 49.5C35.1963 50.1399 30.8584 43.9626 28.9756 38.5C28.0097 34.5054 28.4111 31.6343 28.4756 31.5C11.8213 26.2297 4.58786 20.5466 1.47555 14C-0.974641 10.0759 -0.836946 1.21582 5.47555 0ZM23.4218 10.3228C17.8291 8.36914 12.1621 6.3894 5.47653 4C4.22848 5.54443 3.46969 7.08203 3.5068 8.86011L31.6338 18.678C32.2871 17.2671 33.0966 15.7827 34.1259 14.0752C30.4433 12.7754 26.9648 11.5603 23.458 10.3354L23.4218 10.3228ZM38.1523 15.502C37.0595 17.207 36.1767 18.6736 35.457 20.0125L54.957 26.8191C57.0117 26.075 59.1699 25.1443 61.4765 24C52.1084 20.5137 44.7148 17.8364 38.1523 15.502ZM30.2705 22.1917L4.83298 12.991C5.36716 13.917 6.07419 14.9141 6.97653 16C13.8125 21.7754 18.9863 24.9058 29.0215 27.7163C29.3672 25.6235 29.7461 23.8689 30.2705 22.1917ZM32.5361 28.5881C32.8203 26.74 33.2177 25.136 33.8457 23.4849L48.2216 28.6846C42.9384 29.6746 38.0498 29.4397 32.5361 28.5881ZM54.7129 31.0149C55.3086 30.8555 55.8974 30.6841 56.4756 30.5C52.9775 34.4695 49.9511 39.3132 48.5009 41.6343L48.497 41.6411L48.2871 41.9773C47.1377 42.9629 46.2373 43.7324 45.5263 44.3333C43.3808 46.1467 40.4677 46.2012 38.1767 44.5754C37.873 44.3601 37.5879 44.147 37.3174 43.9448L37.2675 43.908C36.9873 43.6975 36.7236 43.5002 36.4746 43.3259L54.7129 31.0149ZM45.8086 32.6094C44.0478 32.7944 42.5517 32.8789 41.5449 32.8911L40.1562 32.8708C33.9052 32.7788 32.8838 32.7639 31.622 32.7954C31.3652 34.613 32.5009 37.9133 32.9756 39L32.9843 39.02L32.9912 39.0352C33.1455 39.3882 33.3799 39.9243 33.7216 40.512L45.8086 32.6094Z" transform="translate(120 22.5)" fill="#FFC423"/>
<path fill-rule="evenodd" clip-rule="evenodd" d="M5.47555 0L68.9756 22.5C65.3642 25.4192 62.5136 28.3972 60.0195 31.3486C53.4697 42.7808 48.6084 48.2722 44.4756 49.5C35.1963 50.1399 30.8584 43.9626 28.9756 38.5C28.0097 34.5054 28.4111 31.6343 28.4756 31.5C11.8213 26.2297 4.58786 20.5466 1.47555 14C-0.974641 10.0759 -0.836946 1.21582 5.47555 0ZM23.4218 10.3228C17.8291 8.36914 12.1621 6.3894 5.47653 4C4.22848 5.54443 3.46969 7.08203 3.5068 8.86011L31.6338 18.678C32.2871 17.2671 33.0966 15.7827 34.1259 14.0752C30.4433 12.7754 26.9648 11.5603 23.458 10.3354L23.4218 10.3228ZM38.1523 15.502C44.7148 17.8364 52.1084 20.5137 61.4765 24C59.1699 25.1443 57.0117 26.075 54.957 26.8191L35.457 20.0125C36.1767 18.6736 37.0595 17.207 38.1523 15.502ZM33.8457 23.4849L48.2216 28.6846C42.9384 29.6746 38.0498 29.4397 32.5361 28.5881C32.8203 26.74 33.2177 25.136 33.8457 23.4849ZM29.0215 27.7163C18.9863 24.9058 13.8125 21.7754 6.97653 16C6.07419 14.9141 5.36716 13.917 4.83298 12.991L30.2705 22.1917C29.7461 23.8689 29.3672 25.6235 29.0215 27.7163ZM54.7129 31.0149C55.3086 30.8555 55.8974 30.6841 56.4756 30.5C52.9775 34.4695 49.9511 39.3132 48.5009 41.6343L48.497 41.6411L48.2871 41.9773C47.1377 42.9629 46.2373 43.7324 45.5263 44.3333C43.3808 46.1467 40.4677 46.2012 38.1767 44.5754C37.873 44.3601 37.5879 44.147 37.3174 43.9448L37.2675 43.908C36.9873 43.6975 36.7236 43.5002 36.4746 43.3259L54.7129 31.0149ZM45.8086 32.6094L33.7216 40.512C33.3799 39.9243 33.1455 39.3882 32.9912 39.0352L32.9843 39.02L32.9756 39C32.5009 37.9133 31.3652 34.613 31.622 32.7954C32.8838 32.7639 33.9052 32.7788 40.1562 32.8708L41.5449 32.8911C42.5517 32.8789 44.0478 32.7944 45.8086 32.6094Z" transform="translate(271.776 22.5) scale(-1 1)" fill="#FFC423"/>
<path fill-rule="evenodd" clip-rule="evenodd" d="M15 48.5C16.5 48.5 30 40.5 30 24C30 9 17 0 15 0C13 0 0 9 0 24C0 39.5 13.5 48.5 15 48.5ZM15 45C15.6953 45 18.9385 42.7104 21.8037 38.5139C20.4844 38.6045 12.8271 39.0918 8.22754 38.5291C11.085 42.7051 14.3076 45 15 45ZM25.9092 29.0449C25.542 30.7405 25.0215 32.3159 24.4062 33.7637C16.6904 37.1338 12.0322 36.8911 5.5 33.5L5.50195 33.5125C4.92969 32.134 4.44531 30.644 4.09668 29.0488C9.25098 31.6072 20.8975 31.4805 25.9092 29.0449ZM26.4219 25.5312C26.4727 24.8689 26.5 24.1917 26.5 23.5C26.5 22.686 26.4414 21.8782 26.332 21.0801C21.2168 23.457 8.79785 23.5762 3.67383 21.0872C3.56055 21.8855 3.5 22.6912 3.5 23.5C3.5 24.1929 3.52734 24.8716 3.5791 25.5356C10.2461 28.5413 18.4092 28.729 26.4219 25.5312ZM23.8525 13.5496C24.5 14.8071 25.0723 16.1423 25.5166 17.5312L25.5 17.5C17.5762 20.5012 11.3486 20.207 4.52344 17.5093C4.97461 16.1389 5.55078 14.8149 6.20117 13.564C11.459 15.2085 19.0762 15.1296 23.8525 13.5496ZM22.1055 10.5815C19.2715 6.31836 15.9443 3.5 15 3.5C14.0693 3.5 10.8252 6.31421 8.01855 10.5034C8.73926 10.6355 9.38379 10.7568 9.96777 10.8669C15.0391 11.8228 15.584 11.9258 22.1055 10.5815Z" transform="translate(180.976 50)" fill="#FFC423"/>
<path fill-rule="evenodd" clip-rule="evenodd" d="M0.0615711 2C0.0615711 0.895508 0.957079 0 2.06157 0C3.16606 0 4.06157 0.895508 4.06157 2C4.06157 2.44604 4.03227 2.80029 4.0147 3.00781L4.00493 3.13452C3.99712 3.25977 3.99126 3.38208 4.03911 3.70532C4.08403 4.00171 4.1104 4.22754 4.12993 4.40967L4.14458 4.54663C4.15532 4.65137 4.16216 4.71143 4.17095 4.77759C4.18559 4.88013 4.20708 5.01318 4.35259 5.44775C4.53618 5.99927 4.67388 6.70215 4.77056 7.19409L4.77251 7.20361C4.80181 7.35376 4.8272 7.48364 4.84868 7.58301C5.10942 8.78271 5.67876 9.81958 6.4561 11.2334C7.01177 12.2441 7.6729 13.0322 8.5479 14.0745L8.79399 14.3689C8.95122 14.5559 9.13579 14.7681 9.33696 14.9985C9.38481 15.054 9.43462 15.1104 9.48442 15.1677C11.0372 14.2732 12.835 13.3574 14.8858 12.313L15.0303 12.2393C15.3233 12.0901 15.6739 12.0942 15.9639 12.2495C16.6827 12.635 17.378 12.999 18.0469 13.3491L18.1407 13.3984C19.4747 14.0972 20.7032 14.7415 21.8204 15.3887C21.9844 15.2004 22.1358 15.0259 22.2666 14.8689L22.5137 14.5745L22.5245 14.5615C23.3936 13.5256 24.0518 12.74 24.6055 11.7334C25.3829 10.3196 25.9522 9.28271 26.2129 8.08301C26.2344 7.98364 26.2598 7.85376 26.2891 7.70361L26.2911 7.69409L26.293 7.68555C26.3897 7.19409 26.5264 6.49609 26.709 5.94775C26.8536 5.51318 26.876 5.38013 26.8897 5.27759L26.9053 5.15283L26.9102 5.11182L26.917 5.04663L26.9317 4.90967C26.9512 4.72754 26.9776 4.50171 27.0215 4.20532C27.0704 3.88208 27.0645 3.75977 27.0557 3.63452L27.0459 3.50781L27.045 3.49194L27.044 3.47852C27.0274 3.26782 27 2.92578 27 2.5C27 1.39551 27.8956 0.5 29 0.5C30.1045 0.5 31 1.39551 31 2.5C31 2.7605 31.0108 2.90039 31.0254 3.07812L31.0264 3.09155L31.0479 3.37524C31.0743 3.78198 31.0684 4.18896 30.9786 4.79468C30.9444 5.02246 30.9249 5.19287 30.9083 5.34155L30.8995 5.42505C30.8868 5.54663 30.8711 5.69409 30.8516 5.83276C30.792 6.25635 30.6954 6.63892 30.504 7.21265C30.4053 7.50879 30.3487 7.80054 30.2725 8.19189L30.2569 8.26953C30.2188 8.46265 30.1758 8.67993 30.1211 8.93262C29.7344 10.7141 28.9112 12.2073 28.212 13.4753L28.1104 13.6611C27.3555 15.0339 26.4424 16.1189 25.6016 17.1179L25.335 17.4358L25.1436 17.6619C26.6583 18.9519 27.792 20.4568 28.5 22.5C28.9708 24.1272 28.961 25.1587 28.6915 26.5874C28.5772 27.1929 28.334 27.7708 27.9581 28.2585C27.2461 29.1814 26.5137 29.8325 25.4893 30.4604C24.2256 31.2339 22.7315 31.5098 21.251 31.5098H9.42876C8.15434 31.5098 6.86235 31.3191 5.75493 30.689C4.52251 29.9873 3.77446 29.2007 3.08013 28.053C2.67095 27.3772 2.50005 26.5881 2.50005 25.7983V23.2854C2.50005 22.7649 2.57231 22.2432 2.7686 21.761C3.47563 20.0181 4.58891 18.6521 6.127 17.4067C5.99712 17.2561 5.86333 17.0994 5.72661 16.9358L5.46001 16.6179C4.61919 15.6189 3.7061 14.5339 2.95122 13.1611L2.84868 12.9753L2.84477 12.9685C2.14751 11.7019 1.32622 10.2109 0.939501 8.43262C0.877001 8.14551 0.830126 7.90405 0.78911 7.69189C0.712938 7.30054 0.656298 7.00879 0.557665 6.71265C0.366259 6.13892 0.269579 5.75635 0.210009 5.33276C0.190477 5.19409 0.174852 5.04663 0.162157 4.92505L0.153368 4.84155C0.136766 4.69287 0.117235 4.52246 0.0830554 4.29468C-0.00678831 3.68896 -0.0126477 3.28198 0.0137195 2.87524C0.0195789 2.77222 0.0273914 2.68848 0.0332508 2.61279L0.0352039 2.59155L0.0361804 2.57812C0.0508289 2.40039 0.0615711 2.2605 0.0615711 2ZM8.11235 19.9185C7.36235 20.5093 6.71391 21.1565 6.1563 21.9382C5.67974 22.6052 5.50005 23.4287 5.50005 24.2483V25.0771C5.50005 25.6855 5.65532 26.4766 6.07036 26.9219C7.0811 28.0073 8.64946 28.0037 10.1436 28.0005L10.3907 28H11.1875C10.8965 25.2986 9.6563 22.4023 8.11235 19.9185ZM15.2051 28H16.0323C16.2764 24.2197 17.8721 20.9436 19.7266 18.0291L19.7872 17.9358C18.6651 17.2559 17.3965 16.5369 16.001 15.7729C15.6905 15.6033 15.3135 15.6116 15.0088 15.7903C14.0635 16.3445 13.1885 16.8303 12.378 17.2803C12.0723 17.4497 11.7764 17.614 11.4893 17.7749C13.2715 20.6335 14.9083 24.303 15.2051 28ZM23.1016 20.1765C21.4473 22.7754 20.2793 25.2971 20.044 28H21.1026C22.3565 28 23.667 27.8438 24.6221 27.032C25.2149 26.5286 25.503 26.0664 25.5 26C25.4991 25.9819 25.5098 25.9299 25.5264 25.8489C25.6133 25.4336 25.8584 24.2566 25.5 23C25.254 22.1372 24.4268 21.2031 23.1055 20.1697L23.1016 20.1765Z" transform="translate(180.476 6)" fill="#FFC423"/>
<path d="M0 0.925C0 0.414137 0.414137 0 0.925 0H10.075C10.5859 0 11 0.414137 11 0.925V0.925C11 1.43586 10.5859 1.85 10.075 1.85H0.925C0.414137 1.85 0 1.43586 0 0.925V0.925Z" transform="translate(190.476 12.6001)" fill="#EB5757"/>
<path d="M7.24683 0.219958C7.39214 0.091781 7.60962 0.0888932 7.75692 0.214773C9.01898 1.29327 9.75378 2.28576 11 4C12.1271 2.03309 12.6873 1.33857 13.5001 1C13.9742 0.878479 14.4094 1.01024 14.8012 1.37446C15.1446 1.69361 15.0509 2.22474 14.7631 2.59475C14.2602 3.24131 13.7155 4.24736 12.8001 6.5H7.50005H2.51211C2.32111 6.5 2.1468 6.39119 2.06292 6.21961L0.442498 2.90511C0.155379 2.31782 -0.0538614 1.52012 0.478999 1.14143C0.956036 0.802406 1.63304 0.992281 2.00004 1C2.72164 1.27707 2.80405 2.05697 4 4C5.14556 2.41723 5.80903 1.48822 7.24683 0.219958Z" transform="translate(188.476 5)" fill="#EB5757"/>
</svg>
