<svg width="300" height="300" viewBox="0 0 300 300" fill="none" xmlns="http://www.w3.org/2000/svg">
<rect width="300" height="300" fill="#333333"/>
<path fill-rule="evenodd" clip-rule="evenodd" d="M51.832 102.625C80.458 102.625 103.664 79.6511 103.664 51.3123C103.664 22.9731 80.458 0 51.832 0C23.2061 0 0 22.9731 0 51.3123C0 79.6511 23.2061 102.625 51.832 102.625ZM51.832 78.4775C66.9873 78.4775 79.2725 66.3152 79.2725 51.3123C79.2725 36.3093 66.9873 24.147 51.832 24.147C36.6768 24.147 24.3916 36.3093 24.3916 51.3123C24.3916 66.3152 36.6768 78.4775 51.832 78.4775Z" transform="translate(18.75 103.125)" fill="#EEEEEE"/>
<path d="M9.92861 1.24819C10.3917 0.634243 11.3202 0.654578 11.7559 1.28821L19.5675 12.6473C20.0814 13.3946 19.5464 14.4119 18.6394 14.4119H2.26035C1.33078 14.4119 0.801347 13.3494 1.3611 12.6073L9.92861 1.24819Z" transform="translate(225.347 206.25) rotate(-180)" fill="#E0E0E0"/>
<path d="M0 0H30.9295C31.4418 0 31.8037 0.501824 31.642 0.987983L29.0523 8.77037C28.695 9.84422 27.6904 10.5687 26.5586 10.5687H5.42649C4.10262 10.5687 2.93487 9.70196 2.55155 8.4348L0 0Z" transform="translate(198.817 177.427)" fill="#E0E0E0"/>
<path d="M0 0H37.2685C37.7963 0 38.1594 0.530133 37.9687 1.02225L34.7952 9.21057C34.4031 10.2222 33.4296 10.889 32.3447 10.889H5.96281C4.68873 10.889 3.55328 10.0852 3.1299 8.8835L0 0Z" transform="translate(196.89 162.052)" fill="#E0E0E0"/>
<path d="M0 0H38.0478C38.5347 0 38.8928 0.456168 38.7773 0.929111L36.5207 10.1656C36.2332 11.3423 35.1789 12.17 33.9676 12.17H5.51354C4.14861 12.17 2.9553 11.2497 2.60851 9.9296L0 0Z" transform="translate(195.301 145.399)" fill="#E0E0E0"/>
<line y1="-0.37545" x2="19.4632" y2="-0.37545" transform="translate(226.948 116.577) scale(0.999131 1.00087) rotate(-43.6655)" stroke="#E0E0E0" stroke-width="0.7509"/>
<line y1="-0.37545" x2="19.4632" y2="-0.37545" transform="translate(192.415 103.125) scale(0.999131 1.00087) rotate(43.6677)" stroke="#E0E0E0" stroke-width="0.7509"/>
<ellipse cx="15.0262" cy="15.0524" rx="15.0262" ry="15.0524" transform="translate(200.728 111.452)" fill="#E0E0E0"/>
<path d="M43.5364 0L55.6852 12.4903L56.0049 15.3727L51.8487 23.059L22.3795 29.5679L0 0.744052L43.5364 0Z" transform="translate(234.626 129.925)" fill="#E6BE6C"/>
<path d="M3.51678 0L25.8963 28.8238H22.0598L0 8.00661C0.751263 3.92273 1.65684 2.37824 3.51678 0Z" transform="translate(231.111 130.669)" fill="#E6BE6C"/>
<path d="M38.1115 0L44.5168 14.7065L39.3925 24.6174L36.8304 26.216L21.4577 23.6583L0 0.639414L38.1115 0Z" transform="translate(228.553 140.277) scale(1 -1) rotate(-90)" fill="#E6BE6C"/>
<path d="M1.39325 0L25.3757 29.5856L22.9557 28.6923L0.183509 6.02876C-0.0710994 3.18034 -0.328162 1.7319 1.39325 0Z" transform="matrix(0.765493 0.643444 -0.64213 0.766595 228.123 139.38)" fill="#E6BE6C"/>
<path d="M38.1115 0L44.837 15.0369L38.1115 25.9069H34.9088L21.4577 23.6689L0 0.969737L38.1115 0Z" transform="translate(202.667 138.995) rotate(90)" fill="#E6BE6C"/>
<path d="M1.74806 0L25.4884 29.791L23.6885 29.6271L0.0915291 6.07916C-0.162693 3.18736 0.0292619 1.75828 1.74806 0Z" transform="matrix(-0.765493 0.643444 0.64213 0.766595 203.037 137.869)" fill="#E6BE6C"/>
<path d="M3.83649 0L27.1751 29.1441H22.6992L0 8.32688C0.374696 4.87292 1.21019 3.04893 3.83649 0Z" transform="translate(200.088 129.386) scale(-1 1)" fill="#E6BE6C"/>
<path d="M43.4802 0L55.629 12.17V15.693L51.4728 23.3793L23.3386 29.4643L0 0.320264L43.4802 0Z" transform="translate(196.255 129.066) scale(-1 1)" fill="#E6BE6C"/>
</svg>
